<svg xmlns="http://www.w3.org/2000/svg" viewBox="0 0 165.521 105.965" xml:space="preserve">
<path d="M150.698 0H14.823c-.566 0-1.133 0-1.698.003-.477.003-.953.009-1.43.022-.477.013-.953.03-1.427.054-.182.012-.364.024-.547.036-.613.043-1.22.107-1.824.184-.604.077-1.19.167-1.77.289-.593.122-1.183.26-1.76.412-.584.152-1.144.33-1.696.524-.556.194-1.094.41-1.622.645-.523.23-1.04.478-1.534.744-.498.267-.973.556-1.436.86-.455.302-.907.617-1.338.956-.428.337-.853.686-1.249 1.055-.395.371-.786.754-1.155 1.154-.368.398-.717.82-1.048 1.253-.332.432-.65.867-.947 1.318-.3.45-.584.911-.848 1.382-.261.47-.51.946-.736 1.435-.226.488-.438.979-.624 1.48-.185.5-.356 1.004-.51 1.516-.153.511-.296 1.023-.421 1.544-.125.518-.237 1.039-.334 1.565-.098.524-.185 1.047-.258 1.577-.074.529-.133 1.058-.182 1.592-.048.534-.089 1.066-.115 1.602-.027.534-.043 1.074-.05 1.61-.006.539-.006 1.075 0 1.614.006.544.024 1.084.05 1.618.027.536.068 1.068.116 1.599.048.534.107 1.064.182 1.593.073.53.16 1.053.258 1.577.098.525.209 1.047.334 1.565.125.518.269 1.03.422 1.542.153.511.324 1.016.51 1.516.186.5.398.992.624 1.48.226.489.475.965.736 1.435.264.471.548.932.848 1.382.297.451.615.887.947 1.318.331.433.68.855 1.048 1.253.369.4.76.783 1.155 1.154.396.369.821.718 1.249 1.055.431.339.883.654 1.338.956.463.304.938.593 1.436.86.494.266 1.011.514 1.534.744.528.235 1.066.451 1.622.645.552.194 1.112.372 1.696.524.577.152 1.167.29 1.76.412.58.122 1.166.212 1.77.289.604.077 1.211.141 1.824.184.183.012.365.024.547.036.474.024.95.041 1.427.054.477.013.953.019 1.43.022.565.003 1.132.003 1.698.003h135.875c.566 0 1.132 0 1.697-.003.478-.003.954-.009 1.431-.022.477-.013.953-.03 1.427-.054.182-.012.364-.024.546-.036.613-.043 1.22-.107 1.825-.184.604-.077 1.19-.167 1.77-.289.593-.122 1.183-.26 1.76-.412.584-.152 1.144-.33 1.696-.524.556-.194 1.094-.41 1.622-.645.523-.23 1.04-.478 1.534-.744.498-.267.973-.556 1.436-.86.455-.302.907-.617 1.338-.956.428-.337.853-.686 1.249-1.055.395-.371.786-.754 1.156-1.154.368-.398.717-.82 1.048-1.253.332-.432.65-.867.947-1.318.3-.45.584-.911.848-1.382.262-.47.51-.946.736-1.435.226-.488.438-.979.624-1.48.185-.5.356-1.004.51-1.516.153-.511.296-1.023.421-1.542.125-.518.237-1.04.334-1.565.098-.524.185-1.047.258-1.577.074-.529.133-1.059.182-1.593.048-.531.089-1.063.115-1.599.027-.534.043-1.074.05-1.618.006-.539.006-1.075 0-1.614-.006-.536-.023-1.076-.05-1.61-.026-.536-.067-1.068-.115-1.602-.049-.534-.108-1.063-.182-1.592-.073-.53-.16-1.053-.258-1.577-.097-.526-.209-1.047-.334-1.565-.125-.521-.268-1.033-.421-1.544-.154-.512-.325-1.016-.51-1.516-.186-.501-.398-.992-.624-1.48-.226-.489-.474-.965-.736-1.435-.264-.471-.548-.932-.848-1.382-.297-.451-.615-.886-.947-1.318-.331-.433-.68-.855-1.048-1.253-.37-.4-.761-.783-1.156-1.154-.396-.369-.821-.718-1.249-1.055-.431-.339-.883-.654-1.338-.956-.463-.304-.938-.593-1.436-.86-.494-.266-1.011-.514-1.534-.744-.528-.235-1.066-.451-1.622-.645-.552-.194-1.112-.372-1.696-.524-.577-.152-1.167-.29-1.76-.412-.58-.122-1.166-.212-1.77-.289-.605-.077-1.212-.141-1.825-.184-.182-.012-.364-.024-.546-.036-.474-.024-.95-.041-1.427-.054-.477-.013-.953-.019-1.431-.022-.565-.003-1.131-.003-1.697-.003z"/>
<path fill="#000" d="M150.698 3.628h1.697l.48.003.46.008.451.012.427.016.415.021.411.027.399.031.385.034.38.041.369.045.361.05.345.054.339.06.33.064.321.07.309.073.301.08.289.083.279.09.27.093.26.1.249.103.239.11.226.112.22.12.208.122.198.128.188.132.178.138.168.142.156.146.15.152.138.156.128.16.122.167.111.17.103.176.093.18.084.186.075.19.067.196.057.2.049.206.04.21.031.214.023.22.015.223.007.23v95.546l-.007.229-.015.223-.023.221-.031.214-.04.209-.049.207-.057.2-.067.195-.075.19-.084.186-.093.181-.103.176-.111.17-.122.167-.128.159-.138.156-.15.153-.156.146-.168.142-.178.137-.188.133-.198.127-.208.123-.22.119-.226.113-.239.11-.249.103-.26.099-.27.094-.279.089-.289.084-.301.079-.309.074-.321.069-.33.064-.339.06-.345.055-.361.049-.369.045-.38.041-.385.035-.399.031-.411.027-.415.021-.427.016-.451.012-.46.008-.48.003h-1.697L14.823 99.174h-1.698l-.48-.003-.46-.008-.451-.012-.426-.016-.415-.021-.411-.027-.399-.031-.385-.035-.38-.041-.369-.045-.362-.049-.344-.055-.339-.06-.33-.064-.321-.069-.31-.074-.301-.079-.289-.084-.279-.089-.27-.094-.26-.099-.249-.103-.239-.11-.226-.113-.22-.119-.208-.123-.198-.127-.188-.133-.178-.137-.168-.142-.156-.146-.15-.153-.138-.156-.128-.159-.122-.167-.111-.17-.103-.176-.093-.181-.084-.186-.075-.19-.067-.195-.057-.2-.049-.207-.04-.209-.031-.214-.023-.221-.015-.223-.007-.229V3.628l.007-.23.015-.223.023-.22.031-.214.04-.21.049-.206.057-.2.067-.196.075-.19.084-.186.093-.18.103-.176.111-.17.122-.167.128-.16.138-.156.15-.152.156-.146.168-.142.178-.138.188-.132.198-.128.208-.122.22-.12.226-.112.239-.11.249-.103.26-.1.27-.093.279-.09.289-.083.301-.08.31-.073.321-.07.33-.064.339-.06.344-.054.362-.05.369-.045.38-.041.385-.034.399-.031.411-.027.415-.021.426-.016.451-.012.46-.008.48-.003h1.698zm13.685 77.345c-3.111 0-5.782-1.787-7.731-4.936-1.921-3.094-2.996-7.289-2.996-11.676 0-4.387 1.075-8.582 2.996-11.676 1.949-3.149 4.62-4.936 7.731-4.936 3.11 0 5.781 1.787 7.73 4.936 1.921 3.094 2.996 7.289 2.996 11.676 0 4.387-1.075 8.582-2.996 11.676-1.949 3.149-4.62 4.936-7.73 4.936zm0-32.13c-2.713 0-5.068 1.562-6.789 4.397-1.73 2.79-2.69 6.631-2.69 11.121s.96 8.331 2.69 11.121c1.721 2.835 4.076 4.397 6.789 4.397 2.712 0 5.067-1.562 6.788-4.397 1.73-2.79 2.69-6.631 2.69-11.121s-.96-8.331-2.69-11.121c-1.721-2.835-4.076-4.397-6.788-4.397zm35.477 31.216h-1.248v-29.388h1.248v29.388zm36.984-29.388v1.094h-7.178v28.294h-1.247V51.765h-7.179v-1.094h15.604zm11.711 29.388h-1.247v-29.388h1.247v29.388zm38.325.914c-3.11 0-5.781-1.787-7.73-4.936-1.921-3.094-2.996-7.289-2.996-11.676 0-4.387 1.075-8.582 2.996-11.676 1.949-3.149 4.62-4.936 7.73-4.936 3.111 0 5.782 1.787 7.731 4.936 1.921 3.094 2.996 7.289 2.996 11.676 0 4.387-1.075 8.582-2.996 11.676-1.949 3.149-4.62 4.936-7.731 4.936zm0-32.13c-2.712 0-5.067 1.562-6.788 4.397-1.73 2.79-2.69 6.631-2.69 11.121s.96 8.331 2.69 11.121c1.721 2.835 4.076 4.397 6.788 4.397 2.713 0 5.068-1.562 6.789-4.397 1.73-2.79 2.69-6.631 2.69-11.121s-.96-8.331-2.69-11.121c-1.721-2.835-4.076-4.397-6.789-4.397z"/>
</svg> 