<svg xmlns="http://www.w3.org/2000/svg" viewBox="0 0 437 174">
  <path fill="#5F6368" d="M207.2 84.6v50.8h-16.1V10h42.7c10.4 0 19.3 3.7 26.5 11s10.8 16.1 10.8 26.3c0 10.4-3.6 18.8-10.8 25.2-7.2 6.4-16 9.6-26.5 9.6h-26.6v2.5zm0-59.2v43.8h27c7.4 0 13.3-2.2 17.7-6.7 4.4-4.5 6.6-10 6.6-16.7 0-6.5-2.2-12.1-6.6-16.8s-10.3-7-17.7-7h-27zm102.7 111.8c-8.3 0-15.2-2.1-20.7-6.3-5.5-4.2-9.3-9.6-11.5-16.4l14.2-5.9c1.5 4.2 3.7 7.5 6.8 9.9 3 2.4 6.8 3.6 11.2 3.6 4.4 0 8.1-1.1 11.2-3.3s4.6-5.1 4.6-8.7c0-3.8-1.4-6.8-4.1-9.1-2.7-2.3-7.3-4.6-13.7-6.9-7.2-2.5-12.7-5.3-16.4-8.3-3.8-3-6.5-6.3-8.2-9.9-1.7-3.6-2.6-7.6-2.6-11.9 0-5.1 1.4-9.7 4.2-13.6 2.8-4 6.6-7 11.3-9.2 4.7-2.2 10-3.3 15.8-3.3 8.3 0 15.1 2.1 20.4 6.3 5.3 4.2 8.8 9.5 10.4 15.9l-14.2 5.9c-1.2-3.8-3.2-6.9-6.1-9.1-2.9-2.2-6.3-3.3-10.3-3.3-4.2 0-7.7 1-10.4 3.1s-4.1 4.7-4.1 8c0 3 1.3 5.6 3.8 7.7s6.8 4.3 12.9 6.5c7.3 2.5 13 5.3 16.9 8.3 4 3 6.8 6.3 8.6 10 1.8 3.7 2.7 7.8 2.7 12.3 0 5.3-1.4 10.1-4.2 14.2-2.8 4.1-6.7 7.3-11.5 9.6-5 2.3-10.4 3.4-16.4 3.4zm79.6-1.8h-16.9l-35-89.2h17.6l25.7 70.5 26.1-70.5h17.3l-34.8 89.2zm91.9 1.8c-8.8 0-16.6-2-23.5-5.9-6.9-3.9-12.2-9.4-16-16.4-3.8-7-5.7-15-5.7-24 0-8.9 1.9-16.9 5.7-23.9 3.8-7 9.1-12.4 16-16.3 6.9-3.9 14.7-5.8 23.5-5.8s16.6 1.9 23.5 5.8c6.9 3.9 12.2 9.3 16 16.3 3.8 7 5.7 15 5.7 23.9 0 9-1.9 17-5.7 24-3.8 7-9.1 12.5-16 16.4-6.9 3.9-14.7 5.9-23.5 5.9zm0-14.3c6.4 0 11.9-1.4 16.6-4.3 4.7-2.9 8.3-7 10.8-12.4 2.5-5.4 3.8-11.7 3.8-19.1 0-7.3-1.3-13.6-3.8-18.9-2.5-5.3-6.1-9.4-10.8-12.2-4.7-2.8-10.2-4.2-16.6-4.2-6.4 0-11.9 1.4-16.6 4.2-4.7 2.8-8.3 6.9-10.8 12.2-2.5 5.3-3.8 11.6-3.8 18.9 0 7.4 1.3 13.7 3.8 19.1 2.5 5.4 6.1 9.5 10.8 12.4 4.7 2.9 10.2 4.3 16.6 4.3z"/>
  <path fill="#4285F4" d="M35.3 55.1l40.1 0c9.5 0 17.7 3.4 24.3 10.3 6.6 6.8 9.9 15.2 9.9 25.2 0 10-3.3 18.4-9.9 25.2-6.6 6.8-14.8 10.3-24.3 10.3H35.3c-9.5 0-17.7-3.4-24.3-10.3C4.4 109 1.1 100.6 1.1 90.6c0-10 3.3-18.4 9.9-25.2 6.6-6.9 14.8-10.3 24.3-10.3z"/>
  <path fill="#EA4335" d="M142.2 55.1c9.5 0 17.7 3.4 24.3 10.3 6.6 6.8 9.9 15.2 9.9 25.2 0 10-3.3 18.4-9.9 25.2-6.6 6.8-14.8 10.3-24.3 10.3-9.5 0-17.7-3.4-24.3-10.3-6.6-6.8-9.9-15.2-9.9-25.2 0-10 3.3-18.4 9.9-25.2 6.6-6.9 14.8-10.3 24.3-10.3z"/>
  <path fill="#FBBC04" d="M106.9 90.6c0 10-3.3 18.4-9.9 25.2-6.6 6.8-14.8 10.3-24.3 10.3-9.5 0-17.7-3.4-24.3-10.3-6.6-6.8-9.9-15.2-9.9-25.2"/>
  <path fill="#34A853" d="M106.9 90.6c0-10 3.3-18.4 9.9-25.2 6.6-6.8 14.8-10.3 24.3-10.3"/>
</svg> 