<svg xmlns="http://www.w3.org/2000/svg" viewBox="0 0 1000 324">
  <path fill="#1434CB" d="M651.185 0h-88.67l55.45 323.78h88.67L651.185 0zM882.1 208.45c35.979-9.766 61.82-34.617 61.82-73.493 0-53.543-71.586-69.923-142.12-69.923H707.994l-55.45 323.78h94.555l18.48-107.85h6.51l58.36 107.85h105.37l-71.586-108.9c7.56-2.093 13.02-4.185 17.867-6.278M834.93 157c-8.61 5.232-19.53 5.232-32.55 5.232h-8.61l13.02-76.633h8.61c23.715 0 46.38 1.047 46.38 30.093 0 15.697-9.66 33.71-26.85 41.308M355.752 0l-88.67 323.78h94.555L417.572 0h-61.82zM515.942 0h-93.505L366.987 323.78h93.505L515.942 0zM95.13 0L1.625 220.123l-13.02-66.785C-24.09 88.853-65.47 42.473-112.9 19.805l85.535 303.975h96.655L181.715 0H95.13zM-159.28 0h-148.63l-1.05 7.325c115.135 27.652 191.375 94.437 223.925 174.945L-119.45 30.093C-122.592 11.51-138.7 1.047-159.28 0"></path>
</svg> 